/* XPM */
static char *lunar_module[] = {
/* columns rows colors chars-per-pixel */
"64 64 9 1 ",
"  c None",
". c #202E37",
"X c #394A50",
"o c #577277",
"O c #A8CA58",
"+ c #819796",
"@ c #A8B5B2",
"# c #D0DA91",
"$ c #C7CFCC",
/* pixels */
"                                                                ",
"                                                                ",
"                                                                ",
"                                                                ",
"                                                                ",
"                                                                ",
"                                                                ",
"                                                                ",
"                                                                ",
"                                                                ",
"                               ++                               ",
"                    ++        +@@+   +                          ",
"                   +@@+      +@++@+  +                          ",
"                  +@++@+     +@++@+  +                          ",
"                  +@++@+      +@@+   +                          ",
"                   +@@+$$      ++    +    +++++                 ",
"                    ++   @@@+@@@@@@+@@@ ++ +                    ",
"                     $ @@@@@+@@@@@@+@@@@@  +                    ",
"                      @@@@@@+@@@@@@+@@@@@@+                     ",
"                     @@@@@@@+@++++@+@@@@@@@                     ",
"                     @@@@@@@++$$$$++@@@@@@@                     ",
"                     @@@@@++$$+@@+$$++@@@@@                     ",
"                     +@@@+$$@@+@@+@@$$+@@@+                     ",
"                     +@@+$@@@@+@@+@@@@$+@@+                     ",
"                     +@@+$@@@@+@@+@@@@$+@@+                     ",
"                   oo+@+$@@@@@+@@+@@@@@$+@+oo                   ",
"                   oo+@+$@@@@@+@@+@@@@@$+@+oo                   ",
"                  X+++@$@XX@@+@@@@+@@XX@$@+++X                  ",
"                oo+oo+@$@XXX@+@@@@+@XXX@$@+oo+oo                ",
"                oo+oo+@$@XXX@+@XX@+@XXX@$@+oo+oo@@              ",
"                  X+++@$@@@@@+@@@@+@@@@@$@+++X@@@@@             ",
"                   oo+@@$@@@+@oooo@+@@@$@@+oo@@@@@@             ",
"                   oo+@@$@@@+oooooo+@@@$@@+oo@@@@@@             ",
"                  +@@@@@@$@@+oXooXo+@@$@@@@@@@@@@@+             ",
"                  +@@@@@@$@@+oXooXo+@@$@@@@@@@@@@@+             ",
"                  +@@@@@@@$$+oXooXo+$$@@@@@@@@@@@++             ",
"                  ++@@@@@@@@$$oooo$$@@@@@@@@@@@@++              ",
"                   +++@@@+++@@$$$$@@+++@@@@@+++++               ",
"                    +++++   +@@@@@@+   ++++++++                 ",
"                O###########+$$$$$$+###########O                ",
"              OOO###########+@@@@@@+###########OOO              ",
"            OOOO ############++++++############ OOOO            ",
"          OOOO   ############+#OO#+############   OOOO          ",
"         OOO     ############+@@@@+############     OOO         ",
"         OO      ############+#OO#+############      OO         ",
"        OO O     ############+@@@@+############     O OO        ",
"        OO  O    ############+#OO#+############    O  OO        ",
"       OO    O   ############+@@@@+############   O    OO       ",
"       OO    O   ############+#OO#+############   O    OO       ",
"       OO     O  ############+@@@@+############  O     OO       ",
"      OO       O ############+#OO#+############ O       OO      ",
"      OO       O ############+@@@@+############ O       OO      ",
"     OO         O############+#OO#+############O         OO     ",
"     OO        OO############+@@@@+############OO        OO     ",
"     OO     OOO    ##########+#OO#+##########    OOO     OO     ",
"    OOO  OOO                .+@@@@+.                OOO  OOO    ",
"    OO OO                  XX+XOOX+XX                  OO OO    ",
"    OO                     ....OO....                     OO    ",
"   OO                     XXXXXOOXXXXX                     OO   ",
"   OO                     .....OO.....                     OO   ",
"  OO                      XXXXXOOXXXXX                      OO  ",
"  OO                           OO                           OO  ",
"OOOOOO                       OOOOOO                       OOOOOO",
" OOOO                         OOOO                         OOOO "
};
